<?xml version="1.0" encoding="UTF-8" standalone="no"?>
<svg
   width="96"
   height="96"
   viewBox="0 0 96 96"
   version="1.1"
   id="svg72"
   xmlns="http://www.w3.org/2000/svg"
   xmlns:svg="http://www.w3.org/2000/svg"
   xmlns:rdf="http://www.w3.org/1999/02/22-rdf-syntax-ns#"
   xmlns:cc="http://creativecommons.org/ns#"
   xmlns:dc="http://purl.org/dc/elements/1.1/">
  <defs
     id="defs76" />
  <title
     id="title63">Group Copy</title>
  <g
     id="layer1"
     style="display:inline;fill:#1a1a1a"
     transform="translate(-0.06300205,0.05369398)">
    <rect
       style="fill:#1a1a1a;stroke:#1a1a1a;stroke-width:1.08754;stroke-linejoin:round;stroke-miterlimit:19.3;stroke-dasharray:none"
       id="rect1607"
       width="94.91246"
       height="94.91246"
       x="0.60677207"
       y="0.49007604"
       ry="18.678329" />
  </g>
  <g
     id="Page-2"
     stroke="none"
     stroke-width="1"
     fill="none"
     fill-rule="evenodd"
     style="display:inline;fill:#f9f9f9"
     transform="matrix(1.030675,0,0,1.030675,23.791832,6.660433)">
    <g
       id="Desktop-L1-Copy-6"
       transform="matrix(0.71231859,0,0,0.71231859,-22.375904,-16.745981)"
       fill="#FFFFFF"
       style="fill:#f9f9f9">
      <g
         id="Group-Copy"
         transform="translate(40,40)"
         style="fill:#f9f9f9">
        <polygon
           id="Fill-1"
           points="11.244968,25.594526 11.244968,0.3048421 0.98138947,0.3048421 0.98138947,3.0332632 7.8714947,3.0332632 7.8714947,25.594526 0.98138947,25.594526 0.98138947,28.437053 18.388126,28.437053 18.388126,25.594526 "
           style="fill:#f9f9f9" />
        <path
           d="m 39.308466,0 c 5.921684,0 9.716631,3.9486316 9.716631,12.792421 0,14.202745 -7.327011,15.652487 -13.554248,15.745742 l -0.387695,0.0042 c -0.06435,4.34e-4 -0.128565,7.47e-4 -0.19263,9.51e-4 l -4.568164,3e-4 v -2.846316 h 4.719579 c 4.212211,0 10.528,-0.586105 10.528,-11.122105 h -0.151158 c -1.214736,2.125052 -3.566736,3.378526 -6.719157,3.378526 -3.909474,0 -8.616422,-2.467789 -8.616422,-8.7679998 C 30.083202,3.9098947 33.881518,0 39.308466,0 Z m -0.07705,2.8854737 c -2.809263,0 -5.656,1.8589473 -5.656,6.224421 0,3.9094733 2.621053,6.0341053 5.733053,6.0341053 3.378105,0 5.881263,-2.124632 5.881263,-6.0341053 0,-4.1368421 -2.960421,-6.224421 -5.958316,-6.224421 z"
           id="Path-2"
           style="fill:#f9f9f9" />
        <path
           d="m 9.6652632,50.838863 c 5.6484208,0 8.9077898,3.335579 8.9077898,7.542316 0,3.449684 -2.236211,5.875368 -4.586527,6.633263 v 0.07621 c 2.426106,0.568 5.381895,2.690526 5.381895,6.936 0,4.509894 -3.373053,7.845473 -9.7031578,7.921684 C 3.336,80.024126 0,76.612337 0,72.026653 c 0,-4.245474 3.0328421,-6.368 5.3827368,-6.936 v -0.07621 C 3.0328421,64.256547 0.79663158,61.792547 0.79663158,58.381179 c 0,-4.206737 3.22147372,-7.542316 8.86863162,-7.542316 z m 0,15.653895 c -3.1831579,0 -6.1397895,1.667789 -6.1397895,5.381895 0,3.714526 2.9187368,5.344842 6.1397895,5.344842 3.3738948,0 6.2168418,-1.630316 6.2168418,-5.344842 0,-3.714106 -2.880842,-5.381895 -6.2168418,-5.381895 z m 0,-12.925053 c -2.8421053,0 -5.344,1.629895 -5.344,5.117053 0,3.411368 2.5397894,5.116631 5.344,5.116631 2.7679998,0 5.3448418,-1.705263 5.3448418,-5.116631 0,-3.487158 -2.539368,-5.117053 -5.3448418,-5.117053 z"
           id="Path-3"
           style="fill:#f9f9f9" />
        <polygon
           id="Fill-8"
           points="33.336929,69.589937 33.336929,51.212674 30.07335,51.212674 30.07335,72.431621 42.090613,72.431621 42.090613,79.338989 45.354192,79.338989 45.354192,72.431621 49.035034,72.431621 49.035034,69.546147 45.354192,69.546147 45.354192,57.469516 42.090613,57.469516 42.090613,69.589937 "
           style="fill:#f9f9f9" />
      </g>
    </g>
  </g>
  <metadata
     id="metadata2625">
    <rdf:RDF>
      <cc:Work
         rdf:about="">
        <dc:title>Group Copy</dc:title>
      </cc:Work>
    </rdf:RDF>
  </metadata>
</svg>
