<?xml version="1.0" encoding="UTF-8"?>
<svg id="Layer_3" data-name="Layer 3" xmlns="http://www.w3.org/2000/svg" viewBox="0 0 884.82 411.46">
  <defs>
    <style>
      .cls-1, .cls-2, .cls-3, .cls-4, .cls-5, .cls-6, .cls-7, .cls-8, .cls-9, .cls-10, .cls-11 {
        stroke-linecap: round;
        stroke-linejoin: round;
      }

      .cls-1, .cls-2, .cls-9 {
        stroke: #261f23;
      }

      .cls-1, .cls-12 {
        fill: #e5ecf7;
      }

      .cls-2, .cls-3, .cls-4, .cls-5, .cls-6, .cls-13, .cls-7, .cls-8, .cls-9 {
        fill: none;
      }

      .cls-3, .cls-4, .cls-8, .cls-10, .cls-11 {
        stroke: #c0d4f6;
      }

      .cls-3, .cls-11 {
        stroke-width: 3px;
      }

      .cls-4, .cls-10 {
        stroke-width: 6px;
      }

      .cls-5 {
        stroke: #fff;
        stroke-width: 2px;
      }

      .cls-6 {
        stroke-width: 4px;
      }

      .cls-6, .cls-13, .cls-7 {
        stroke: #86a3f8;
      }

      .cls-13 {
        stroke-miterlimit: 10;
      }

      .cls-7, .cls-8, .cls-9 {
        stroke-width: 5.36px;
      }

      .cls-10, .cls-11, .cls-14 {
        fill: #c0d4f6;
      }

      .cls-15 {
        fill: #261f23;
      }

      .cls-15, .cls-14, .cls-16, .cls-12 {
        stroke-width: 0px;
      }

      .cls-16 {
        fill: #fff;
      }
    </style>
  </defs>
  <path class="cls-14" d="m210.52,185.39s-2.24.22-2.44,4.8,1.36,22.25,5.05,23.9-1.5,13.13,12.16,13.31,3.76-29.91,3.76-29.91l-13.59-15.86-4.94,3.77Z"/>
  <path class="cls-14" d="m330.93,188.73s1.39-2.57,4.11-1.18-.19,10.13,0,15.37-4.97,18.39-4.97,18.39c0,0-.57,7.13-5.56,6.99s-3.44-9.71-3.44-9.71l2.33-20.13,7.54-9.72Z"/>
  <path class="cls-13" d="m218.46,207.82s-.29-8.39,2.82-8.39c0,0-3.31-11.52-7.96-11.87"/>
  <path class="cls-13" d="m324.94,204.51s2.49-4.7,3.57-2.76,0,9.2,0,9.2"/>
  <path class="cls-15" d="m229.81,276.67l-38.66,24.34c-13.6,8.56-17.15,26.82-7.74,39.86l5.73,7.94c5.49,7.61,14.44,11.94,23.81,11.53l65.93-2.91,76.37-3.37c10.25-.45,19.43-6.51,23.87-15.76l6.8-14.15c6.98-14.53.2-31.94-14.78-37.92l-19.09-7.62c-5.39-2.15-10.36-5.24-14.67-9.11l-15.5-13.92c-1.31-1.1-2.96-1.71-4.67-1.71h0l-87.38,22.79Z"/>
  <path class="cls-16" d="m237.99,263.83h0c-6.6,6.6-10.31,15.56-10.31,24.9l2.85,70.83h44.61c2.48,0,4.96-.11,7.44-.33l45.14-3.96,2.34-75.32c0-6.49-2.34-12.76-6.6-17.65l-6.01-6.92-79.47,8.45Z"/>
  <path class="cls-14" d="m235.16,284.76l2.82-3.62v-32.86l78.39.99,2.99,17c2.08,11.85-2.83,23.85-12.63,30.84l-8.63,6.16s1.01,24.47-11.73,26.29h0c-6.12,0-12.02-2.27-16.56-6.37l-20.97-18.91s-13.68-6.68-13.68-19.52Z"/>
  <path class="cls-2" d="m241.12,350.23l9.24-38.76,42.42,34.78c1.84,1.51,2.26,4.16.97,6.16h0c-1.29,2-3.88,2.71-6.01,1.66l-.15-.08c-2.31-1.15-3.26-3.95-2.12-6.27l17.85-36.22,16.52,35.78"/>
  <path class="cls-12" d="m222.55,194.59l1.54,25.32c.52,8.45,3.77,16.5,9.26,22.94l14.26,16.71c.96,1.12,2.05,2.13,3.24,3.01l10.67,7.81c3.27,2.39,7.21,3.68,11.26,3.68h11.25c4.69,0,9.22-1.73,12.72-4.86l9.75-8.72c2.11-1.89,4.06-3.95,5.83-6.16l4.04-5.05c4.79-5.99,7.63-13.31,8.11-20.97l2.17-34.05,3.4-17.8-6.18-39.15-17.13-18.94-31.55,2.26-51.39,21.43-5.35,30.35,4.08,22.19Z"/>
  <path class="cls-11" d="m311.14,183.79l4.13,2.4v2.53h-2.86s1.69,3.88,4.78.55l2.49-1.01v-6.36s-.88,4.43-4.45,3.49-4.08-1.6-4.08-1.6Z"/>
  <path class="cls-3" d="m264.69,189.71l6.9-2.74s-1.89,3.92-5.25,5.37-5.66.98-5.66.98c0,0,3.74-2.29,4.01-3.61Z"/>
  <path class="cls-8" d="m271.51,218.99s-.2,2.56,7.08,2.3,7.26-2.7,7.26-2.7"/>
  <path class="cls-3" d="m241.12,186.98s1.87-1.46,7.72-3.18"/>
  <path class="cls-3" d="m235.87,179.2s-1.53,5.83,3.45,7.77"/>
  <polyline class="cls-4" points="265.15 181.62 270.46 185.39 270.46 175.21"/>
  <path class="cls-10" d="m290.79,181.62l-3.06,2.96s-3.31-11.51,7.15-11.85c10.46-.34-4.1,8.88-4.1,8.88Z"/>
  <path class="cls-15" d="m297.55,184.96c0-1.6.87-3,2.17-3.75.63-.37,4.75.07,5.54,1.06.59.74.94,1.67.94,2.69,0,2.39-1.94,4.32-4.32,4.32s-4.32-1.94-4.32-4.32Z"/>
  <path class="cls-2" d="m293.85,187.21h-3.32l-1.08.34s4.37-5.25,7.52-5.93"/>
  <path class="cls-2" d="m291.33,182.61s6.07-2.01,10.54-.98c0,0,6.23,0,9.27,4.96"/>
  <line class="cls-5" x1="298.93" y1="188.73" x2="304.61" y2="188.87"/>
  <path class="cls-9" d="m290.33,173.4l.45-.45c1.03-1.03,2.45-1.57,3.91-1.48l15.03.93s9.18,2.6,9.18,7.76"/>
  <path class="cls-3" d="m295.82,192.87s3.96,2.34,10.93,1.56"/>
  <path class="cls-3" d="m250.36,194.01s6.82,1.06,11.86-1.28"/>
  <path class="cls-15" d="m228.93,155.37s0,5.74-2.29,7.46-2.58,9.7-2.58,17.33v13.57l-4.65,2.65v-4.48l-1.92,1.92s.37-8.28-3.44-8.43h-3.52v-38.05l-1.63-6.47,11.72-17.79s3.33-4.34,5.93-5.79l-3.33-2.6,5.06-4.2s6.22-.29,9.98-3.04,18.66-13.17,36.17-10.13l.69-3.76s27.03,6.63,33.17,14.59l7.13-6.3-4.15,8.46s12.24,7.8,13.91,15.21,10.75,8.71,10.75,8.71c0,0,.19,2.22-1.85,5.19,0,0,.74,5.93-1.3,11.67,0,0,4.63,26.17-1.85,37.64l-.93,7.65-3.34-2.14v-19.44s-4.45-11.86-4.45-16.31v-4.63l-3.32.37s3.51-2.22,2.21-7.6-4.45-6.3-4.45-6.3c0,0-.75-16.12-13.99-17.23,0,0-14.53,15.04-25.47,24.27l12.25-16.47-24.11,19.06s8.52-9.26,9.45-13.9c0,0-21.76,20.72-35.47,22.02l12.5-21.08s-23.35,11.69-22.89,18.35Z"/>
  <path class="cls-2" d="m247.33,149.09c-10.41,4.3-15.2,18.23-15.2,18.23"/>
  <path class="cls-2" d="m248.84,157.29s20.72-11.45,22.75-25.63"/>
  <path class="cls-2" d="m230.19,157.29s20.72-11.45,22.75-25.63"/>
  <path class="cls-2" d="m227.19,157.29s20.72-11.45,22.75-25.63"/>
  <path class="cls-2" d="m224.19,157.29s20.72-11.45,22.75-25.63"/>
  <path class="cls-2" d="m295.82,121.79s-12.65,9.62-5.49,26.59"/>
  <line class="cls-3" x1="272.41" y1="252.57" x2="285.18" y2="252.57"/>
  <path class="cls-3" d="m300.03,236.81s2.95-.99.53-3.11"/>
  <path class="cls-3" d="m255.58,234.11s-.7,2.45,1.01,1.96"/>
  <path class="cls-1" d="m256.3,237.25s-.38-1.84,2.01-1.67,21.47,3.01,21.47,3.01h1.51l17.39-3.02s1.02-1.18,1.36,0"/>
  <path class="cls-13" d="m298.75,217.69s8.07,9.81,12.39,11.38"/>
  <path class="cls-4" d="m247.67,223.38s6.13-2.23,13.28-10.15"/>
  <path class="cls-13" d="m260.95,216.41c1.54-.63-7.87,9.37-13.28,13.64"/>
  <line class="cls-4" x1="244.36" y1="175.21" x2="261.52" y2="175.21"/>
  <path class="cls-7" d="m235.16,180.15c5.13-7.2,9.51-6.83,9.51-6.83"/>
  <path class="cls-2" d="m300.77,109.42s-10.05,27.84-31.38,44.52"/>
  <path class="cls-2" d="m306.75,118.35s-1.32,15.17-9.79,26.62"/>
  <path class="cls-6" d="m274.52,219.23s4.31,2.65,8.55,0"/>
  <polyline class="cls-2" points="273.73 217.69 272.11 216.17 271.16 217.16 273.07 217.16"/>
  <path class="cls-2" d="m285.18,217.69s1.12-.79,1.98-.76,1.12.76,1.12.76h-1.06"/>
  <path class="cls-13" d="m268.83,206.75s-3.38,1.96-2.91,7.34"/>
  <path class="cls-13" d="m287.24,208.46h0c.83-.93,2.32-.84,3.02.19,1.04,1.52,2.16,3.68,1.72,5.43"/>
  <line class="cls-2" x1="271.41" y1="144.39" x2="256.78" y2="159.01"/>
  <path class="cls-15" d="m226.63,162.83s19.55-13.22,25.67-28.38l-24.63,17.25-1.04,11.13Z"/>
  <polygon class="cls-14" points="267.83 176.45 260.01 181.03 268.37 185.39 267.83 176.45"/>
  <path class="cls-2" d="m265.14,186.98h2.69l-5.38-4.18s-1.99-2.06-4.04-1.73"/>
  <path class="cls-1" d="m244.67,187.55s3.95-4.83,7.95-5.33l8.32-1.59"/>
  <path class="cls-15" d="m251.36,185.39c0-1.1.41-2.1,1.08-2.86.79-.9,4.41-1.35,4.93-1.13,1.55.66,2.64,2.19,2.64,3.98,0,2.39-1.94,4.32-4.32,4.32s-4.32-1.94-4.32-4.32Z"/>
  <line class="cls-5" x1="251.81" y1="189.71" x2="258.3" y2="189.71"/>
  <path class="cls-9" d="m246.94,173.33l18.49-1.99c1.67-.18,2.96,1.44,2.42,3.03l-.12.36-11.13-1.89"/>
</svg>