<?xml version="1.0" encoding="UTF-8" standalone="no"?>
<svg
   id="Layer_3"
   data-name="Layer 3"
   viewBox="0 0 300 360.00001"
   version="1.1"
   sodipodi:docname="Mark3.svg"
   width="135"
   height="162"
   inkscape:version="1.2.2 (1:1.2.2+202212051551+b0a8486541)"
   xmlns:inkscape="http://www.inkscape.org/namespaces/inkscape"
   xmlns:sodipodi="http://sodipodi.sourceforge.net/DTD/sodipodi-0.dtd"
   xmlns="http://www.w3.org/2000/svg"
   xmlns:svg="http://www.w3.org/2000/svg">
  <sodipodi:namedview
     id="namedview874"
     pagecolor="#ffffff"
     bordercolor="#000000"
     borderopacity="0.25"
     inkscape:showpageshadow="2"
     inkscape:pageopacity="0.0"
     inkscape:pagecheckerboard="0"
     inkscape:deskcolor="#d1d1d1"
     showgrid="false"
     inkscape:zoom="1.4940892"
     inkscape:cx="207.48427"
     inkscape:cy="206.14566"
     inkscape:window-width="1444"
     inkscape:window-height="991"
     inkscape:window-x="26"
     inkscape:window-y="23"
     inkscape:window-maximized="0"
     inkscape:current-layer="Layer_3" />
  <defs
     id="defs763">
    <style
       id="style761">
      .cls-1, .cls-2, .cls-3, .cls-4, .cls-5, .cls-6, .cls-7, .cls-8, .cls-9, .cls-10, .cls-11 {
        stroke-linecap: round;
        stroke-linejoin: round;
      }

      .cls-1, .cls-2, .cls-9 {
        stroke: #261f23;
      }

      .cls-1, .cls-12 {
        fill: #e5ecf7;
      }

      .cls-2, .cls-3, .cls-4, .cls-5, .cls-6, .cls-13, .cls-7, .cls-8, .cls-9 {
        fill: none;
      }

      .cls-3, .cls-4, .cls-8, .cls-10, .cls-11 {
        stroke: #c0d4f6;
      }

      .cls-3, .cls-11 {
        stroke-width: 3px;
      }

      .cls-4, .cls-10 {
        stroke-width: 6px;
      }

      .cls-5 {
        stroke: #fff;
        stroke-width: 2px;
      }

      .cls-6 {
        stroke-width: 4px;
      }

      .cls-6, .cls-13, .cls-7 {
        stroke: #86a3f8;
      }

      .cls-13 {
        stroke-miterlimit: 10;
      }

      .cls-7, .cls-8, .cls-9 {
        stroke-width: 5.36px;
      }

      .cls-10, .cls-11, .cls-14 {
        fill: #c0d4f6;
      }

      .cls-15 {
        fill: #261f23;
      }

      .cls-15, .cls-14, .cls-16, .cls-12 {
        stroke-width: 0px;
      }

      .cls-16 {
        fill: #fff;
      }
    </style>
  </defs>
  <path
     class="cls-14"
     d="m 42.619045,128.2669 c 0,0 -2.877692,0.28263 -3.134629,6.16648 -0.256937,5.88385 1.74717,28.58421 6.487654,30.70394 4.740485,2.11973 -1.927026,16.8679 15.621755,17.09914 17.54878,0.23125 4.83041,-38.42489 4.83041,-38.42489 l -17.45885,-20.37509 -6.34634,4.84326 z"
     id="path765" />
  <path
     class="cls-14"
     d="m 197.30782,132.55774 c 0,0 1.78571,-3.30164 5.28005,-1.51593 3.49434,1.78571 -0.24409,13.01385 0,19.74559 0.24409,6.73175 -6.38488,23.62534 -6.38488,23.62534 0,0 -0.73227,9.15979 -7.14284,8.97994 -6.41058,-0.17986 -4.41932,-12.47428 -4.41932,-12.47428 l 2.99332,-25.86069 9.68651,-12.48712 z"
     id="path767" />
  <path
     class="cls-13"
     d="m 52.819435,157.08235 c 0,0 -0.37256,-10.77849 3.62281,-10.77849 0,0 -4.25231,-14.79956 -10.226086,-15.2492"
     id="path769"
     style="stroke-width:1.28468" />
  <path
     class="cls-13"
     d="m 189.61256,152.83005 c 0,0 3.19886,-6.03801 4.58632,-3.54573 1.38746,2.49229 0,11.81909 0,11.81909"
     id="path771"
     style="stroke-width:1.28468" />
  <path
     class="cls-15"
     d="m 67.400595,245.53283 -49.665876,31.26921 c -17.47170037,10.99689 -22.0323284,34.45522 -9.9434534,51.2075 l 7.3612394,10.20039 c 7.052914,9.77644 18.550834,15.33912 30.588321,14.8124 l 84.699194,-3.73843 98.11131,-4.32938 c 13.16801,-0.57811 24.9614,-8.3633 30.6654,-20.24662 l 8.73585,-18.17828 c 8.96709,-18.66645 0.25694,-41.0328 -18.98763,-48.71521 l -24.52461,-9.78929 c -6.92445,-2.76207 -13.30933,-6.73174 -18.84631,-11.70347 l -19.9126,-17.8828 c -1.68294,-1.41315 -3.80267,-2.19681 -5.99948,-2.19681 v 0 L 67.426285,245.51999 Z"
     id="path773" />
  <path
     class="cls-16"
     d="m 77.909305,229.03749 v 0 c -8.47891,8.47892 -13.24509,19.98968 -13.24509,31.98863 l 3.66135,90.99416 h 57.309745 c 3.18601,0 6.37203,-0.14132 9.55804,-0.42395 l 57.99063,-5.08735 3.00616,-96.76238 c 0,-8.3376 -3.00616,-16.39257 -8.47891,-22.67467 l -7.72095,-8.89001 -102.093815,10.85557 z"
     id="path775" />
  <path
     class="cls-14"
     d="m 74.273655,255.92593 3.62281,-4.65056 v -42.21471 l 100.706355,1.27184 3.8412,21.83962 c 2.67215,15.22351 -3.63565,30.63971 -16.22555,39.61965 l -11.08682,7.91365 c 0,0 1.29753,31.43622 -15.06934,33.77434 v 0 c -7.86227,0 -15.4419,-2.91623 -21.27437,-8.18343 L 91.848125,281.00296 c 0,0 -17.57447,-8.58169 -17.57447,-25.07703 z"
     id="path777" />
  <path
     class="cls-2"
     d="m 81.930375,340.03418 11.87047,-49.79435 54.496285,44.68131 c 2.36382,1.93987 2.90338,5.34428 1.24614,7.91365 v 0 c -1.65724,2.56937 -4.98457,3.48149 -7.72095,2.13257 l -0.1927,-0.10277 c -2.96762,-1.47739 -4.18807,-5.0745 -2.72353,-8.05497 l 22.93161,-46.53125 21.22297,45.96599"
     id="path779"
     style="stroke-width:1.28468" />
  <path
     class="cls-12"
     d="m 58.073795,140.08599 1.97841,32.52819 c 0.66804,10.85558 4.84326,21.19728 11.89617,29.47065 l 18.31959,21.46706 c 1.2333,1.43885 2.63361,2.73638 4.16238,3.8669 l 13.707565,10.03338 c 4.20092,3.0704 9.26257,4.72764 14.46554,4.72764 h 14.4527 c 6.02516,0 11.84478,-2.2225 16.34117,-6.24356 l 12.52567,-11.20245 c 2.71068,-2.42805 5.21582,-5.0745 7.48971,-7.91365 l 5.19012,-6.48765 c 6.15364,-7.69526 9.80214,-17.09914 10.41879,-26.93982 l 2.78776,-43.74349 4.36792,-22.86737 -7.93934,-50.295363 -22.00664,-24.331911 -40.53177,2.903385 -66.019895,27.530775 -6.87306,38.990144 5.24151,28.50714 z"
     id="path781" />
  <path
     class="cls-11"
     d="m 171.88392,126.2114 5.30575,3.08324 v 3.25025 h -3.6742 c 0,0 2.17112,4.98458 6.14079,0.70658 l 3.19886,-1.29753 v -8.17059 c 0,0 -1.13052,5.69115 -5.71684,4.48355 -4.58632,-1.20761 -5.24151,-2.0555 -5.24151,-2.0555 z"
     id="path783" />
  <path
     class="cls-3"
     d="m 112.21036,133.81673 8.86432,-3.52003 c 0,0 -2.42805,5.03596 -6.74459,6.89875 -4.31654,1.86279 -7.27131,1.25899 -7.27131,1.25899 0,0 4.80472,-2.94193 5.15158,-4.63771 z"
     id="path785" />
  <path
     class="cls-8"
     d="m 120.97191,171.43227 c 0,0 -0.25694,3.28879 9.09556,2.95477 9.35249,-0.33401 9.3268,-3.46864 9.3268,-3.46864"
     id="path787" />
  <path
     class="cls-3"
     d="m 81.930375,130.30954 c 0,0 2.40235,-1.87564 9.91775,-4.08529"
     id="path789" />
  <path
     class="cls-3"
     d="m 75.185785,120.3147 c 0,0 -1.96557,7.48971 4.43215,9.982"
     id="path791" />
  <polyline
     class="cls-4"
     points="265.15 181.62 270.46 185.39 270.46 175.21"
     id="polyline793"
     transform="matrix(1.2846838,0,0,1.2846838,-227.8326,-109.90064)" />
  <path
     class="cls-10"
     d="m 145.74061,123.42364 -3.93113,3.80266 c 0,0 -4.25231,-14.78671 9.18548,-15.2235 13.4378,-0.43679 -5.2672,11.40799 -5.2672,11.40799 z"
     id="path795" />
  <path
     class="cls-15"
     d="m 154.42507,127.71448 c 0,-2.05549 1.11768,-3.85405 2.78776,-4.81756 0.80936,-0.47534 6.10225,0.0899 7.11715,1.36176 0.75797,0.95067 1.20761,2.14542 1.20761,3.4558 0,3.0704 -2.49229,5.54984 -5.54984,5.54984 -3.05755,0 -5.54983,-2.49229 -5.54983,-5.54984 z"
     id="path797" />
  <path
     class="cls-2"
     d="m 149.67174,130.60502 h -4.26515 l -1.38746,0.43679 c 0,0 5.61407,-6.74459 9.66082,-7.61817"
     id="path799"
     style="stroke-width:1.28468" />
  <path
     class="cls-2"
     d="m 146.43434,124.69547 c 0,0 7.79803,-2.58221 13.54056,-1.25899 0,0 8.00358,0 11.90902,6.37204"
     id="path801"
     style="stroke-width:1.28468" />
  <line
     class="cls-5"
     x1="156.19794"
     y1="132.55772"
     x2="163.49493"
     y2="132.73758"
     id="line803" />
  <path
     class="cls-9"
     d="m 145.14965,112.86354 0.57811,-0.57811 c 1.32323,-1.32323 3.14748,-2.01695 5.02311,-1.90133 l 19.3088,1.19475 c 0,0 11.7934,3.34018 11.7934,9.96915"
     id="path805" />
  <path
     class="cls-3"
     d="m 152.20257,137.87633 c 0,0 5.08735,3.00616 14.04159,2.00411"
     id="path807" />
  <path
     class="cls-3"
     d="m 93.800845,139.34087 c 0,0 8.761545,1.36176 15.236345,-1.6444"
     id="path809" />
  <path
     class="cls-15"
     d="m 66.270075,89.700694 c 0,0 0,7.374085 -2.94193,9.583743 -2.94192,2.209643 -3.31448,12.461423 -3.31448,22.263563 v 17.43316 l -5.97378,3.40441 v -5.75538 l -2.46659,2.46659 c 0,0 0.47533,-10.63718 -4.419316,-10.82988 H 42.631892 V 79.384683 L 40.537857,71.072779 55.594355,48.218253 c 0,0 4.27799,-5.575527 7.61817,-7.438319 l -4.278,-3.340178 6.5005,-5.395672 c 0,0 7.99074,-0.372558 12.82115,-3.905439 4.83041,-3.53288 23.972195,-16.919286 46.467005,-13.013847 l 0.88643,-4.830411 c 0,0 34.72501,8.517454 42.61296,18.743537 l 9.1598,-8.093508 -5.33144,10.868425 c 0,0 15.72453,10.020534 17.86995,19.540041 2.14543,9.519507 13.81036,11.189596 13.81036,11.189596 0,0 0.24409,2.851998 -2.37667,6.667509 0,0 0.95067,7.618175 -1.67009,14.99226 0,0 5.94809,33.620173 -2.37666,48.355493 l -1.19476,9.82783 -4.29084,-2.74922 v -24.97426 c 0,0 -5.71685,-15.236343 -5.71685,-20.953182 v -5.948086 l -4.26515,0.475333 c 0,0 4.50924,-2.851999 2.83915,-9.763598 -1.67008,-6.911598 -5.71684,-8.093508 -5.71684,-8.093508 0,0 -0.96351,-20.709103 -17.97273,-22.135102 0,0 -18.66645,19.321645 -32.72089,31.179277 l 15.73737,-21.158743 -30.97372,24.486074 c 0,0 10.9455,-11.896173 12.14026,-17.857106 0,0 -27.954715,26.618649 -45.567725,28.288738 l 16.05854,-27.081135 c 0,0 -29.99736,15.017954 -29.40641,23.573948 z"
     id="path811" />
  <path
     class="cls-2"
     d="m 89.908255,81.63288 c -13.37356,5.52414 -19.52719,23.41978 -19.52719,23.41978"
     id="path813"
     style="stroke-width:1.28468" />
  <path
     class="cls-2"
     d="m 91.848125,92.167287 c 0,0 26.618645,-14.70963 29.226555,-32.926446"
     id="path815"
     style="stroke-width:1.28468" />
  <path
     class="cls-2"
     d="m 67.888775,92.167287 c 0,0 26.61865,-14.70963 29.22656,-32.926446"
     id="path817"
     style="stroke-width:1.28468" />
  <path
     class="cls-2"
     d="m 64.034725,92.167287 c 0,0 26.61865,-14.70963 29.22656,-32.926446"
     id="path819"
     style="stroke-width:1.28468" />
  <path
     class="cls-2"
     d="m 60.180675,92.167287 c 0,0 26.61865,-14.70963 29.22656,-32.926446"
     id="path821"
     style="stroke-width:1.28468" />
  <path
     class="cls-2"
     d="m 152.20257,46.561011 c 0,0 -16.25125,12.358659 -7.05292,34.159743"
     id="path823"
     style="stroke-width:1.28468" />
  <line
     class="cls-3"
     x1="122.12815"
     y1="214.57196"
     x2="138.53354"
     y2="214.57196"
     id="line825" />
  <path
     class="cls-3"
     d="m 157.61109,194.32534 c 0,0 3.78981,-1.27184 0.68088,-3.99537"
     id="path827" />
  <path
     class="cls-3"
     d="m 100.50689,190.85669 c 0,0 -0.899275,3.14748 1.29753,2.51798"
     id="path829" />
  <path
     class="cls-1"
     d="m 101.43186,194.8906 c 0,0 -0.48818,-2.36382 2.58222,-2.14542 3.07039,0.21839 27.58216,3.86689 27.58216,3.86689 h 1.93987 l 22.34065,-3.87974 c 0,0 1.31038,-1.51593 1.74717,0"
     id="path831"
     style="stroke-width:1.28468" />
  <path
     class="cls-13"
     d="m 155.96669,169.76218 c 0,0 10.3674,12.60275 15.91723,14.6197"
     id="path833"
     style="stroke-width:1.28468" />
  <path
     class="cls-4"
     d="m 90.345045,177.07203 c 0,0 7.87511,-2.86484 17.060595,-13.03954"
     id="path835" />
  <path
     class="cls-13"
     d="m 107.40564,168.11779 c 1.97842,-0.80935 -10.110455,12.03749 -17.060595,17.52309"
     id="path837"
     style="stroke-width:1.28468" />
  <line
     class="cls-4"
     x1="86.092743"
     y1="115.18884"
     x2="108.13791"
     y2="115.18884"
     id="line839" />
  <path
     class="cls-7"
     d="m 74.273655,121.53515 c 6.59043,-9.24972 12.21734,-8.77439 12.21734,-8.77439"
     id="path841" />
  <path
     class="cls-2"
     d="m 158.56175,30.669472 c 0,0 -12.91107,35.765598 -40.31337,57.194124"
     id="path843"
     style="stroke-width:1.28468" />
  <path
     class="cls-2"
     d="m 166.24416,42.141699 c 0,0 -1.69578,19.488654 -12.57705,34.198283"
     id="path845"
     style="stroke-width:1.28468" />
  <path
     class="cls-6"
     d="m 124.8388,171.7406 c 0,0 5.53699,3.40441 10.98405,0"
     id="path847" />
  <polyline
     class="cls-2"
     points="273.73 217.69 272.11 216.17 271.16 217.16 273.07 217.16"
     id="polyline849"
     transform="matrix(1.2846838,0,0,1.2846838,-227.8326,-109.90064)" />
  <path
     class="cls-2"
     d="m 138.53353,169.76218 c 0,0 1.43885,-1.0149 2.54368,-0.97636 1.10482,0.0385 1.43884,0.97636 1.43884,0.97636 h -1.36176"
     id="path851"
     style="stroke-width:1.28468" />
  <path
     class="cls-13"
     d="m 117.52895,155.70774 c 0,0 -4.34223,2.51798 -3.73843,9.42958"
     id="path853"
     style="stroke-width:1.28468" />
  <path
     class="cls-13"
     d="m 141.17998,157.90455 v 0 c 1.06629,-1.19475 2.98047,-1.07913 3.87975,0.24409 1.33607,1.95272 2.77491,4.72764 2.20965,6.97583"
     id="path855"
     style="stroke-width:1.28468" />
  <line
     class="cls-2"
     x1="120.84345"
     y1="75.594872"
     x2="102.04852"
     y2="94.376938"
     id="line857"
     style="stroke-width:1.28468" />
  <path
     class="cls-15"
     d="m 63.315305,99.284437 c 0,0 25.11557,-16.983522 32.97783,-36.459328 l -31.64176,22.160795 z"
     id="path859" />
  <polygon
     class="cls-14"
     points="268.37,185.39 267.83,176.45 260.01,181.03 "
     id="polygon861"
     transform="matrix(1.2846838,0,0,1.2846838,-227.8326,-109.90064)" />
  <path
     class="cls-2"
     d="m 112.78847,130.30954 h 3.4558 l -6.9116,-5.36998 c 0,0 -2.55652,-2.64644 -5.19012,-2.2225"
     id="path863"
     style="stroke-width:1.28468" />
  <path
     class="cls-1"
     d="m 86.490995,131.04181 c 0,0 5.0745,-6.20502 10.21324,-6.84736 L 107.3928,122.1518"
     id="path865"
     style="stroke-width:1.28468" />
  <path
     class="cls-15"
     d="m 95.085535,128.2669 c 0,-1.41316 0.52672,-2.69784 1.38745,-3.6742 1.0149,-1.15622 5.665455,-1.73432 6.333495,-1.45169 1.99126,0.84789 3.39156,2.81345 3.39156,5.11304 0,3.07039 -2.49229,5.54983 -5.54983,5.54983 -3.057545,0 -5.549835,-2.49228 -5.549835,-5.54983 z"
     id="path867" />
  <line
     class="cls-5"
     x1="95.663635"
     y1="133.81674"
     x2="104.00121"
     y2="133.81674"
     id="line869" />
  <path
     class="cls-9"
     d="m 89.407235,112.77361 23.753795,-2.55652 c 2.14542,-0.23125 3.80266,1.84994 3.10893,3.89259 l -0.15416,0.46249 -14.29853,-2.42806"
     id="path871" />
</svg>
