<?xml version="1.0" encoding="UTF-8" standalone="no" ?>
<!DOCTYPE svg PUBLIC "-//W3C//DTD SVG 1.1//EN" "http://www.w3.org/Graphics/SVG/1.1/DTD/svg11.dtd">
<svg xmlns="http://www.w3.org/2000/svg" xmlns:xlink="http://www.w3.org/1999/xlink" version="1.1" width="164" height="146" viewBox="0 0 164 146" xml:space="preserve">
<desc>Created with Fabric.js 5.2.4</desc>
<defs>
</defs>
<g transform="matrix(1 0 0 1 82 73)" id="92a57dae-c571-4806-8d61-af49abf7bb2f"  >
<rect style="stroke: none; stroke-width: 1; stroke-dasharray: none; stroke-linecap: butt; stroke-dashoffset: 0; stroke-linejoin: miter; stroke-miterlimit: 4; fill: rgb(255,255,255); fill-rule: nonzero; opacity: 1; visibility: hidden;" vector-effect="non-scaling-stroke"  x="-82" y="-73" rx="0" ry="0" width="164" height="146" />
</g>
<g transform="matrix(Infinity NaN NaN Infinity 0 0)" id="9248b65b-ddc2-4399-8090-7d98a6f415e7"  >
</g>
<g transform="matrix(0.53 0 0 0.53 82 73)"  >
<g style="" vector-effect="non-scaling-stroke"   >
		<g transform="matrix(1 0 0 1 -63.12 -22.45)"  >
<path style="stroke: none; stroke-width: 0; stroke-dasharray: none; stroke-linecap: butt; stroke-dashoffset: 0; stroke-linejoin: miter; stroke-miterlimit: 4; fill: rgb(192,212,246); fill-rule: nonzero; opacity: 1;" vector-effect="non-scaling-stroke"  transform=" translate(-220.29, -204.52)" d="M 210.52 185.39 C 210.52 185.39 208.28 185.60999999999999 208.08 190.19 C 207.88000000000002 194.77 209.44000000000003 212.44 213.13000000000002 214.09 C 216.82000000000002 215.74 211.63000000000002 227.22 225.29000000000002 227.4 C 238.95000000000002 227.58 229.05 197.49 229.05 197.49 L 215.46 181.63 L 210.52 185.4 Z" stroke-linecap="round" />
</g>
		<g transform="matrix(1 0 0 1 45.12 -19.24)"  >
<path style="stroke: none; stroke-width: 0; stroke-dasharray: none; stroke-linecap: butt; stroke-dashoffset: 0; stroke-linejoin: miter; stroke-miterlimit: 4; fill: rgb(192,212,246); fill-rule: nonzero; opacity: 1;" vector-effect="non-scaling-stroke"  transform=" translate(-328.53, -207.72)" d="M 330.93 188.73 C 330.93 188.73 332.32 186.16 335.04 187.54999999999998 C 337.76000000000005 188.93999999999997 334.85 197.67999999999998 335.04 202.92 C 335.23 208.16 330.07 221.31 330.07 221.31 C 330.07 221.31 329.5 228.44 324.51 228.3 C 319.52 228.16000000000003 321.07 218.59 321.07 218.59 L 323.4 198.46 L 330.94 188.74 Z" stroke-linecap="round" />
</g>
		<g transform="matrix(1 0 0 1 -66.11 -29.27)"  >
<path style="stroke: rgb(134,163,248); stroke-width: 1; stroke-dasharray: none; stroke-linecap: butt; stroke-dashoffset: 0; stroke-linejoin: miter; stroke-miterlimit: 10; fill: none; fill-rule: nonzero; opacity: 1;" vector-effect="non-scaling-stroke"  transform=" translate(-217.3, -197.69)" d="M 218.46 207.82 C 218.46 207.82 218.17000000000002 199.43 221.28 199.43 C 221.28 199.43 217.97 187.91 213.32 187.56" stroke-linecap="round" />
</g>
		<g transform="matrix(1 0 0 1 43.56 -20.85)"  >
<path style="stroke: rgb(134,163,248); stroke-width: 1; stroke-dasharray: none; stroke-linecap: butt; stroke-dashoffset: 0; stroke-linejoin: miter; stroke-miterlimit: 10; fill: none; fill-rule: nonzero; opacity: 1;" vector-effect="non-scaling-stroke"  transform=" translate(-326.96, -206.12)" d="M 324.94 204.51 C 324.94 204.51 327.43 199.81 328.51 201.75 C 329.59 203.69 328.51 210.95 328.51 210.95" stroke-linecap="round" />
</g>
		<g transform="matrix(1 0 0 1 0 80.15)"  >
<path style="stroke: none; stroke-width: 0; stroke-dasharray: none; stroke-linecap: butt; stroke-dashoffset: 0; stroke-linejoin: miter; stroke-miterlimit: 4; fill: rgb(38,31,35); fill-rule: nonzero; opacity: 1;" vector-effect="non-scaling-stroke"  transform=" translate(-283.41, -307.12)" d="M 229.81 276.67 L 191.15 301.01 C 177.55 309.57 174 327.83 183.41 340.87 L 189.14 348.81 C 194.63 356.42 203.57999999999998 360.75 212.95 360.34 L 278.88 357.42999999999995 L 355.25 354.05999999999995 C 365.5 353.60999999999996 374.68 347.54999999999995 379.12 338.29999999999995 L 385.92 324.15 C 392.90000000000003 309.62 386.12 292.21 371.14000000000004 286.22999999999996 L 352.05000000000007 278.60999999999996 C 346.6600000000001 276.46 341.69000000000005 273.36999999999995 337.38000000000005 269.49999999999994 L 321.88000000000005 255.57999999999996 C 320.57000000000005 254.47999999999996 318.9200000000001 253.86999999999995 317.21000000000004 253.86999999999995 L 317.21000000000004 253.86999999999995 L 229.83000000000004 276.65999999999997 Z" stroke-linecap="round" />
</g>
		<g transform="matrix(1 0 0 1 -4.54 80.51)"  >
<path style="stroke: none; stroke-width: 0; stroke-dasharray: none; stroke-linecap: butt; stroke-dashoffset: 0; stroke-linejoin: miter; stroke-miterlimit: 4; fill: rgb(255,255,255); fill-rule: nonzero; opacity: 1;" vector-effect="non-scaling-stroke"  transform=" translate(-278.87, -307.47)" d="M 237.99 263.83 L 237.99 263.83 C 231.39000000000001 270.43 227.68 279.39 227.68 288.72999999999996 L 230.53 359.55999999999995 L 275.14 359.55999999999995 C 277.62 359.55999999999995 280.09999999999997 359.44999999999993 282.58 359.22999999999996 L 327.71999999999997 355.27 L 330.05999999999995 279.95 C 330.05999999999995 273.46 327.71999999999997 267.19 323.4599999999999 262.3 L 317.44999999999993 255.38000000000002 L 237.97999999999993 263.83000000000004 Z" stroke-linecap="round" />
</g>
		<g transform="matrix(1 0 0 1 -5.91 61.96)"  >
<path style="stroke: none; stroke-width: 0; stroke-dasharray: none; stroke-linecap: butt; stroke-dashoffset: 0; stroke-linejoin: miter; stroke-miterlimit: 4; fill: rgb(192,212,246); fill-rule: nonzero; opacity: 1;" vector-effect="non-scaling-stroke"  transform=" translate(-277.5, -288.92)" d="M 235.16 284.76 L 237.98 281.14 L 237.98 248.27999999999997 L 316.37 249.26999999999998 L 319.36 266.27 C 321.44 278.12 316.53000000000003 290.12 306.73 297.10999999999996 L 298.1 303.27 C 298.1 303.27 299.11 327.74 286.37 329.56 L 286.37 329.56 C 280.25 329.56 274.35 327.29 269.81 323.19 L 248.84 304.28 C 248.84 304.28 235.16 297.59999999999997 235.16 284.76 Z" stroke-linecap="round" />
</g>
		<g transform="matrix(1 0 0 1 -2.93 106.05)"  >
<path style="stroke: rgb(38,31,35); stroke-width: 1; stroke-dasharray: none; stroke-linecap: round; stroke-dashoffset: 0; stroke-linejoin: round; stroke-miterlimit: 4; fill: none; fill-rule: nonzero; opacity: 1;" vector-effect="non-scaling-stroke"  transform=" translate(-280.48, -333.01)" d="M 241.12 350.23 L 250.36 311.47 L 292.78000000000003 346.25 C 294.62 347.76 295.04 350.41 293.75000000000006 352.41 L 293.75000000000006 352.41 C 292.46000000000004 354.41 289.87000000000006 355.12 287.74000000000007 354.07000000000005 L 287.5900000000001 353.99000000000007 C 285.2800000000001 352.8400000000001 284.3300000000001 350.0400000000001 285.4700000000001 347.7200000000001 L 303.3200000000001 311.5000000000001 L 319.8400000000001 347.2800000000001" stroke-linecap="round" />
</g>
		<g transform="matrix(1 0 0 1 -9.16 -30.75)"  >
<path style="stroke: none; stroke-width: 0; stroke-dasharray: none; stroke-linecap: butt; stroke-dashoffset: 0; stroke-linejoin: miter; stroke-miterlimit: 4; fill: rgb(229,236,247); fill-rule: nonzero; opacity: 1;" vector-effect="non-scaling-stroke"  transform=" translate(-274.25, -196.21)" d="M 222.55 194.59 L 224.09 219.91 C 224.61 228.35999999999999 227.86 236.41 233.35 242.85 L 247.60999999999999 259.56 C 248.57 260.68 249.66 261.69 250.85 262.57 L 261.52 270.38 C 264.78999999999996 272.77 268.72999999999996 274.06 272.78 274.06 L 284.03 274.06 C 288.71999999999997 274.06 293.25 272.33 296.75 269.2 L 306.5 260.47999999999996 C 308.61 258.59 310.56 256.53 312.33 254.31999999999996 L 316.37 249.26999999999995 C 321.16 243.27999999999994 324 235.95999999999995 324.48 228.29999999999995 L 326.65000000000003 194.24999999999994 L 330.05 176.44999999999993 L 323.87 137.29999999999993 L 306.74 118.35999999999993 L 275.19 120.61999999999993 L 223.8 142.04999999999993 L 218.45000000000002 172.39999999999992 L 222.53000000000003 194.58999999999992 Z" stroke-linecap="round" />
</g>
		<g transform="matrix(1 0 0 1 32 -40.7)"  >
<path style="stroke: rgb(192,212,246); stroke-width: 3; stroke-dasharray: none; stroke-linecap: round; stroke-dashoffset: 0; stroke-linejoin: round; stroke-miterlimit: 4; fill: rgb(192,212,246); fill-rule: nonzero; opacity: 1;" vector-effect="non-scaling-stroke"  transform=" translate(-315.41, -186.26)" d="M 311.14 183.79 L 315.27 186.19 L 315.27 188.72 L 312.40999999999997 188.72 C 312.40999999999997 188.72 314.09999999999997 192.6 317.18999999999994 189.27 L 319.67999999999995 188.26000000000002 L 319.67999999999995 181.9 C 319.67999999999995 181.9 318.79999999999995 186.33 315.22999999999996 185.39000000000001 C 311.65999999999997 184.45000000000002 311.15 183.79000000000002 311.15 183.79000000000002 Z" stroke-linecap="round" />
</g>
		<g transform="matrix(1 0 0 1 -17.27 -36.78)"  >
<path style="stroke: rgb(192,212,246); stroke-width: 3; stroke-dasharray: none; stroke-linecap: round; stroke-dashoffset: 0; stroke-linejoin: round; stroke-miterlimit: 4; fill: none; fill-rule: nonzero; opacity: 1;" vector-effect="non-scaling-stroke"  transform=" translate(-266.13, -190.18)" d="M 264.69 189.71 L 271.59 186.97 C 271.59 186.97 269.7 190.89 266.34 192.34 C 262.97999999999996 193.79000000000002 260.67999999999995 193.32 260.67999999999995 193.32 C 260.67999999999995 193.32 264.41999999999996 191.03 264.68999999999994 189.70999999999998 Z" stroke-linecap="round" />
</g>
		<g transform="matrix(1 0 0 1 -4.73 -7.01)"  >
<path style="stroke: rgb(192,212,246); stroke-width: 5.36; stroke-dasharray: none; stroke-linecap: round; stroke-dashoffset: 0; stroke-linejoin: round; stroke-miterlimit: 4; fill: none; fill-rule: nonzero; opacity: 1;" vector-effect="non-scaling-stroke"  transform=" translate(-278.68, -219.95)" d="M 271.51 218.99 C 271.51 218.99 271.31 221.55 278.59 221.29000000000002 C 285.86999999999995 221.03000000000003 285.84999999999997 218.59000000000003 285.84999999999997 218.59000000000003" stroke-linecap="round" />
</g>
		<g transform="matrix(1 0 0 1 -38.43 -41.57)"  >
<path style="stroke: rgb(192,212,246); stroke-width: 3; stroke-dasharray: none; stroke-linecap: round; stroke-dashoffset: 0; stroke-linejoin: round; stroke-miterlimit: 4; fill: none; fill-rule: nonzero; opacity: 1;" vector-effect="non-scaling-stroke"  transform=" translate(-244.98, -185.39)" d="M 241.12 186.98 C 241.12 186.98 242.99 185.51999999999998 248.84 183.79999999999998" stroke-linecap="round" />
</g>
		<g transform="matrix(1 0 0 1 -45.92 -43.88)"  >
<path style="stroke: rgb(192,212,246); stroke-width: 3; stroke-dasharray: none; stroke-linecap: round; stroke-dashoffset: 0; stroke-linejoin: round; stroke-miterlimit: 4; fill: none; fill-rule: nonzero; opacity: 1;" vector-effect="non-scaling-stroke"  transform=" translate(-237.48, -183.08)" d="M 235.87 179.2 C 235.87 179.2 234.34 185.03 239.32 186.97" stroke-linecap="round" />
</g>
		<g transform="matrix(1 0 0 1 -15.6 -46.66)"  >
<polyline style="stroke: rgb(192,212,246); stroke-width: 6; stroke-dasharray: none; stroke-linecap: round; stroke-dashoffset: 0; stroke-linejoin: round; stroke-miterlimit: 4; fill: none; fill-rule: nonzero; opacity: 1;" vector-effect="non-scaling-stroke"  points="-2.65,1.32 2.66,5.09 2.66,-5.09 " />
</g>
		<g transform="matrix(1 0 0 1 9.54 -48.31)"  >
<path style="stroke: rgb(192,212,246); stroke-width: 6; stroke-dasharray: none; stroke-linecap: round; stroke-dashoffset: 0; stroke-linejoin: round; stroke-miterlimit: 4; fill: rgb(192,212,246); fill-rule: nonzero; opacity: 1;" vector-effect="non-scaling-stroke"  transform=" translate(-292.95, -178.65)" d="M 290.79 181.62 L 287.73 184.58 C 287.73 184.58 284.42 173.07000000000002 294.88 172.73000000000002 C 305.34 172.39000000000001 290.78 181.61 290.78 181.61 Z" stroke-linecap="round" />
</g>
		<g transform="matrix(1 0 0 1 18.47 -41.78)"  >
<path style="stroke: none; stroke-width: 0; stroke-dasharray: none; stroke-linecap: butt; stroke-dashoffset: 0; stroke-linejoin: miter; stroke-miterlimit: 4; fill: rgb(38,31,35); fill-rule: nonzero; opacity: 1;" vector-effect="non-scaling-stroke"  transform=" translate(-301.88, -185.18)" d="M 297.55 184.96 C 297.55 183.36 298.42 181.96 299.72 181.21 C 300.35 180.84 304.47 181.28 305.26000000000005 182.27 C 305.85 183.01000000000002 306.20000000000005 183.94 306.20000000000005 184.96 C 306.20000000000005 187.35 304.26000000000005 189.28 301.88000000000005 189.28 C 299.50000000000006 189.28 297.56000000000006 187.34 297.56000000000006 184.96 Z" stroke-linecap="round" />
</g>
		<g transform="matrix(1 0 0 1 9.8 -42.38)"  >
<path style="stroke: rgb(38,31,35); stroke-width: 1; stroke-dasharray: none; stroke-linecap: round; stroke-dashoffset: 0; stroke-linejoin: round; stroke-miterlimit: 4; fill: none; fill-rule: nonzero; opacity: 1;" vector-effect="non-scaling-stroke"  transform=" translate(-293.21, -184.59)" d="M 293.85 187.21 L 290.53000000000003 187.21 L 289.45000000000005 187.55 C 289.45000000000005 187.55 293.82000000000005 182.3 296.97 181.62" stroke-linecap="round" />
</g>
		<g transform="matrix(1 0 0 1 17.83 -43)"  >
<path style="stroke: rgb(38,31,35); stroke-width: 1; stroke-dasharray: none; stroke-linecap: round; stroke-dashoffset: 0; stroke-linejoin: round; stroke-miterlimit: 4; fill: none; fill-rule: nonzero; opacity: 1;" vector-effect="non-scaling-stroke"  transform=" translate(-301.24, -183.96)" d="M 291.33 182.61 C 291.33 182.61 297.4 180.60000000000002 301.87 181.63000000000002 C 301.87 181.63000000000002 308.1 181.63000000000002 311.14 186.59000000000003" stroke-linecap="round" />
</g>
		<g transform="matrix(1 0 0 1 18.36 -38.16)"  >
<line style="stroke: rgb(255,255,255); stroke-width: 2; stroke-dasharray: none; stroke-linecap: round; stroke-dashoffset: 0; stroke-linejoin: round; stroke-miterlimit: 4; fill: none; fill-rule: nonzero; opacity: 1;" vector-effect="non-scaling-stroke"  x1="-2.8400000000000034" y1="-0.07000000000000739" x2="2.8400000000000034" y2="0.07000000000000739" />
</g>
		<g transform="matrix(1 0 0 1 21.21 -51.15)"  >
<path style="stroke: rgb(38,31,35); stroke-width: 5.36; stroke-dasharray: none; stroke-linecap: round; stroke-dashoffset: 0; stroke-linejoin: round; stroke-miterlimit: 4; fill: none; fill-rule: nonzero; opacity: 1;" vector-effect="non-scaling-stroke"  transform=" translate(-304.62, -175.81)" d="M 290.33 173.4 L 290.78 172.95000000000002 C 291.80999999999995 171.92000000000002 293.22999999999996 171.38000000000002 294.69 171.47000000000003 L 309.71999999999997 172.40000000000003 C 309.71999999999997 172.40000000000003 318.9 175.00000000000003 318.9 180.16000000000003" stroke-linecap="round" />
</g>
		<g transform="matrix(1 0 0 1 17.88 -33.23)"  >
<path style="stroke: rgb(192,212,246); stroke-width: 3; stroke-dasharray: none; stroke-linecap: round; stroke-dashoffset: 0; stroke-linejoin: round; stroke-miterlimit: 4; fill: none; fill-rule: nonzero; opacity: 1;" vector-effect="non-scaling-stroke"  transform=" translate(-301.28, -193.73)" d="M 295.82 192.87 C 295.82 192.87 299.78 195.21 306.75 194.43" stroke-linecap="round" />
</g>
		<g transform="matrix(1 0 0 1 -27.12 -33.47)"  >
<path style="stroke: rgb(192,212,246); stroke-width: 3; stroke-dasharray: none; stroke-linecap: round; stroke-dashoffset: 0; stroke-linejoin: round; stroke-miterlimit: 4; fill: none; fill-rule: nonzero; opacity: 1;" vector-effect="non-scaling-stroke"  transform=" translate(-256.29, -193.49)" d="M 250.36 194.01 C 250.36 194.01 257.18 195.07 262.22 192.73" stroke-linecap="round" />
</g>
		<g transform="matrix(1 0 0 1 -10.99 -81.99)"  >
<path style="stroke: none; stroke-width: 0; stroke-dasharray: none; stroke-linecap: butt; stroke-dashoffset: 0; stroke-linejoin: miter; stroke-miterlimit: 4; fill: rgb(38,31,35); fill-rule: nonzero; opacity: 1;" vector-effect="non-scaling-stroke"  transform=" translate(-272.42, -144.97)" d="M 228.93 155.37 C 228.93 155.37 228.93 161.11 226.64000000000001 162.83 C 224.35000000000002 164.55 224.06 172.53 224.06 180.16000000000003 L 224.06 193.73000000000002 L 219.41 196.38000000000002 L 219.41 191.90000000000003 L 217.49 193.82000000000002 C 217.49 193.82000000000002 217.86 185.54000000000002 214.05 185.39000000000001 L 210.53 185.39000000000001 L 210.53 147.34000000000003 L 208.9 140.87000000000003 L 220.62 123.08000000000004 C 220.62 123.08000000000004 223.95000000000002 118.74000000000004 226.55 117.29000000000003 L 223.22 114.69000000000004 L 228.28 110.49000000000004 C 228.28 110.49000000000004 234.5 110.20000000000003 238.26 107.45000000000003 C 242.01999999999998 104.70000000000003 256.92 94.28000000000003 274.43 97.32000000000004 L 275.12 93.56000000000003 C 275.12 93.56000000000003 302.15 100.19000000000003 308.29 108.15000000000003 L 315.42 101.85000000000004 L 311.27000000000004 110.31000000000003 C 311.27000000000004 110.31000000000003 323.51000000000005 118.11000000000003 325.18000000000006 125.52000000000004 C 326.8500000000001 132.93000000000006 335.93000000000006 134.23000000000005 335.93000000000006 134.23000000000005 C 335.93000000000006 134.23000000000005 336.12000000000006 136.45000000000005 334.08000000000004 139.42000000000004 C 334.08000000000004 139.42000000000004 334.82000000000005 145.35000000000005 332.78000000000003 151.09000000000003 C 332.78000000000003 151.09000000000003 337.41 177.26000000000005 330.93 188.73000000000002 L 330 196.38000000000002 L 326.66 194.24000000000004 L 326.66 174.80000000000004 C 326.66 174.80000000000004 322.21000000000004 162.94000000000005 322.21000000000004 158.49000000000004 L 322.21000000000004 153.86000000000004 L 318.89000000000004 154.23000000000005 C 318.89000000000004 154.23000000000005 322.40000000000003 152.01000000000005 321.1 146.63000000000005 C 319.8 141.25000000000006 316.65000000000003 140.33000000000004 316.65000000000003 140.33000000000004 C 316.65000000000003 140.33000000000004 315.90000000000003 124.21000000000004 302.66 123.10000000000004 C 302.66 123.10000000000004 288.13000000000005 138.14000000000004 277.19000000000005 147.37000000000003 L 289.44000000000005 130.90000000000003 L 265.33000000000004 149.96000000000004 C 265.33000000000004 149.96000000000004 273.85 140.70000000000005 274.78000000000003 136.06000000000003 C 274.78000000000003 136.06000000000003 253.02000000000004 156.78000000000003 239.31000000000003 158.08000000000004 L 251.81000000000003 137.00000000000006 C 251.81000000000003 137.00000000000006 228.46000000000004 148.69000000000005 228.92000000000002 155.35000000000005 Z" stroke-linecap="round" />
</g>
		<g transform="matrix(1 0 0 1 -43.68 -68.76)"  >
<path style="stroke: rgb(38,31,35); stroke-width: 1; stroke-dasharray: none; stroke-linecap: round; stroke-dashoffset: 0; stroke-linejoin: round; stroke-miterlimit: 4; fill: none; fill-rule: nonzero; opacity: 1;" vector-effect="non-scaling-stroke"  transform=" translate(-239.73, -158.2)" d="M 247.33 149.09 C 236.92000000000002 153.39000000000001 232.13000000000002 167.32 232.13000000000002 167.32" stroke-linecap="round" />
</g>
		<g transform="matrix(1 0 0 1 -23.19 -82.49)"  >
<path style="stroke: rgb(38,31,35); stroke-width: 1; stroke-dasharray: none; stroke-linecap: round; stroke-dashoffset: 0; stroke-linejoin: round; stroke-miterlimit: 4; fill: none; fill-rule: nonzero; opacity: 1;" vector-effect="non-scaling-stroke"  transform=" translate(-260.22, -144.47)" d="M 248.84 157.29 C 248.84 157.29 269.56 145.84 271.59000000000003 131.66" stroke-linecap="round" />
</g>
		<g transform="matrix(1 0 0 1 -41.84 -82.49)"  >
<path style="stroke: rgb(38,31,35); stroke-width: 1; stroke-dasharray: none; stroke-linecap: round; stroke-dashoffset: 0; stroke-linejoin: round; stroke-miterlimit: 4; fill: none; fill-rule: nonzero; opacity: 1;" vector-effect="non-scaling-stroke"  transform=" translate(-241.56, -144.47)" d="M 230.19 157.29 C 230.19 157.29 250.91 145.84 252.94 131.66" stroke-linecap="round" />
</g>
		<g transform="matrix(1 0 0 1 -44.84 -82.49)"  >
<path style="stroke: rgb(38,31,35); stroke-width: 1; stroke-dasharray: none; stroke-linecap: round; stroke-dashoffset: 0; stroke-linejoin: round; stroke-miterlimit: 4; fill: none; fill-rule: nonzero; opacity: 1;" vector-effect="non-scaling-stroke"  transform=" translate(-238.56, -144.47)" d="M 227.19 157.29 C 227.19 157.29 247.91 145.84 249.94 131.66" stroke-linecap="round" />
</g>
		<g transform="matrix(1 0 0 1 -47.84 -82.49)"  >
<path style="stroke: rgb(38,31,35); stroke-width: 1; stroke-dasharray: none; stroke-linecap: round; stroke-dashoffset: 0; stroke-linejoin: round; stroke-miterlimit: 4; fill: none; fill-rule: nonzero; opacity: 1;" vector-effect="non-scaling-stroke"  transform=" translate(-235.56, -144.47)" d="M 224.19 157.29 C 224.19 157.29 244.91 145.84 246.94 131.66" stroke-linecap="round" />
</g>
		<g transform="matrix(1 0 0 1 8.57 -91.88)"  >
<path style="stroke: rgb(38,31,35); stroke-width: 1; stroke-dasharray: none; stroke-linecap: round; stroke-dashoffset: 0; stroke-linejoin: round; stroke-miterlimit: 4; fill: none; fill-rule: nonzero; opacity: 1;" vector-effect="non-scaling-stroke"  transform=" translate(-291.98, -135.09)" d="M 295.82 121.79 C 295.82 121.79 283.17 131.41 290.33 148.38" stroke-linecap="round" />
</g>
		<g transform="matrix(1 0 0 1 -4.61 25.61)"  >
<line style="stroke: rgb(192,212,246); stroke-width: 3; stroke-dasharray: none; stroke-linecap: round; stroke-dashoffset: 0; stroke-linejoin: round; stroke-miterlimit: 4; fill: none; fill-rule: nonzero; opacity: 1;" vector-effect="non-scaling-stroke"  x1="-6.384999999999991" y1="0" x2="6.384999999999991" y2="0" />
</g>
		<g transform="matrix(1 0 0 1 17.37 8.29)"  >
<path style="stroke: rgb(192,212,246); stroke-width: 3; stroke-dasharray: none; stroke-linecap: round; stroke-dashoffset: 0; stroke-linejoin: round; stroke-miterlimit: 4; fill: none; fill-rule: nonzero; opacity: 1;" vector-effect="non-scaling-stroke"  transform=" translate(-300.77, -235.25)" d="M 300.03 236.81 C 300.03 236.81 302.97999999999996 235.82 300.55999999999995 233.7" stroke-linecap="round" />
</g>
		<g transform="matrix(1 0 0 1 -27.39 8.16)"  >
<path style="stroke: rgb(192,212,246); stroke-width: 3; stroke-dasharray: none; stroke-linecap: round; stroke-dashoffset: 0; stroke-linejoin: round; stroke-miterlimit: 4; fill: none; fill-rule: nonzero; opacity: 1;" vector-effect="non-scaling-stroke"  transform=" translate(-256.01, -235.12)" d="M 255.58 234.11 C 255.58 234.11 254.88000000000002 236.56 256.59000000000003 236.07000000000002" stroke-linecap="round" />
</g>
		<g transform="matrix(1 0 0 1 -5.25 9.85)"  >
<path style="stroke: rgb(38,31,35); stroke-width: 1; stroke-dasharray: none; stroke-linecap: round; stroke-dashoffset: 0; stroke-linejoin: round; stroke-miterlimit: 4; fill: rgb(229,236,247); fill-rule: nonzero; opacity: 1;" vector-effect="non-scaling-stroke"  transform=" translate(-278.16, -236.82)" d="M 256.3 237.25 C 256.3 237.25 255.92000000000002 235.41 258.31 235.58 C 260.7 235.75000000000003 279.78 238.59 279.78 238.59 L 281.28999999999996 238.59 L 298.67999999999995 235.57 C 298.67999999999995 235.57 299.69999999999993 234.39 300.03999999999996 235.57" stroke-linecap="round" />
</g>
		<g transform="matrix(1 0 0 1 21.54 -3.58)"  >
<path style="stroke: rgb(134,163,248); stroke-width: 1; stroke-dasharray: none; stroke-linecap: butt; stroke-dashoffset: 0; stroke-linejoin: miter; stroke-miterlimit: 10; fill: none; fill-rule: nonzero; opacity: 1;" vector-effect="non-scaling-stroke"  transform=" translate(-304.94, -223.38)" d="M 298.75 217.69 C 298.75 217.69 306.82 227.5 311.14 229.07" stroke-linecap="round" />
</g>
		<g transform="matrix(1 0 0 1 -29.1 -8.66)"  >
<path style="stroke: rgb(192,212,246); stroke-width: 6; stroke-dasharray: none; stroke-linecap: round; stroke-dashoffset: 0; stroke-linejoin: round; stroke-miterlimit: 4; fill: none; fill-rule: nonzero; opacity: 1;" vector-effect="non-scaling-stroke"  transform=" translate(-254.31, -218.31)" d="M 247.67 223.38 C 247.67 223.38 253.79999999999998 221.15 260.95 213.23" stroke-linecap="round" />
</g>
		<g transform="matrix(1 0 0 1 -29.01 -3.75)"  >
<path style="stroke: rgb(134,163,248); stroke-width: 1; stroke-dasharray: none; stroke-linecap: butt; stroke-dashoffset: 0; stroke-linejoin: miter; stroke-miterlimit: 10; fill: none; fill-rule: nonzero; opacity: 1;" vector-effect="non-scaling-stroke"  transform=" translate(-254.39, -223.22)" d="M 260.95 216.41 C 262.49 215.78 253.07999999999998 225.78 247.67 230.05" stroke-linecap="round" />
</g>
		<g transform="matrix(1 0 0 1 -30.47 -51.75)"  >
<line style="stroke: rgb(192,212,246); stroke-width: 6; stroke-dasharray: none; stroke-linecap: round; stroke-dashoffset: 0; stroke-linejoin: round; stroke-miterlimit: 4; fill: none; fill-rule: nonzero; opacity: 1;" vector-effect="non-scaling-stroke"  x1="-8.579999999999984" y1="0" x2="8.579999999999984" y2="0" />
</g>
		<g transform="matrix(1 0 0 1 -43.49 -50.23)"  >
<path style="stroke: rgb(134,163,248); stroke-width: 5.36; stroke-dasharray: none; stroke-linecap: round; stroke-dashoffset: 0; stroke-linejoin: round; stroke-miterlimit: 4; fill: none; fill-rule: nonzero; opacity: 1;" vector-effect="non-scaling-stroke"  transform=" translate(-239.91, -176.73)" d="M 235.16 180.15 C 240.29 172.95000000000002 244.67 173.32 244.67 173.32" stroke-linecap="round" />
</g>
		<g transform="matrix(1 0 0 1 1.67 -95.28)"  >
<path style="stroke: rgb(38,31,35); stroke-width: 1; stroke-dasharray: none; stroke-linecap: round; stroke-dashoffset: 0; stroke-linejoin: round; stroke-miterlimit: 4; fill: none; fill-rule: nonzero; opacity: 1;" vector-effect="non-scaling-stroke"  transform=" translate(-285.08, -131.68)" d="M 300.77 109.42 C 300.77 109.42 290.71999999999997 137.26 269.39 153.94" stroke-linecap="round" />
</g>
		<g transform="matrix(1 0 0 1 18.45 -95.3)"  >
<path style="stroke: rgb(38,31,35); stroke-width: 1; stroke-dasharray: none; stroke-linecap: round; stroke-dashoffset: 0; stroke-linejoin: round; stroke-miterlimit: 4; fill: none; fill-rule: nonzero; opacity: 1;" vector-effect="non-scaling-stroke"  transform=" translate(-301.86, -131.66)" d="M 306.75 118.35 C 306.75 118.35 305.43 133.51999999999998 296.96 144.97" stroke-linecap="round" />
</g>
		<g transform="matrix(1 0 0 1 -4.61 -7.14)"  >
<path style="stroke: rgb(134,163,248); stroke-width: 4; stroke-dasharray: none; stroke-linecap: round; stroke-dashoffset: 0; stroke-linejoin: round; stroke-miterlimit: 4; fill: none; fill-rule: nonzero; opacity: 1;" vector-effect="non-scaling-stroke"  transform=" translate(-278.79, -219.82)" d="M 274.52 219.23 C 274.52 219.23 278.83 221.88 283.07 219.23" stroke-linecap="round" />
</g>
		<g transform="matrix(1 0 0 1 -10.96 -10.03)"  >
<polyline style="stroke: rgb(38,31,35); stroke-width: 1; stroke-dasharray: none; stroke-linecap: round; stroke-dashoffset: 0; stroke-linejoin: round; stroke-miterlimit: 4; fill: none; fill-rule: nonzero; opacity: 1;" vector-effect="non-scaling-stroke"  points="1.28,0.76 -0.34,-0.76 -1.29,0.23 0.62,0.23 " />
</g>
		<g transform="matrix(1 0 0 1 3.32 -9.65)"  >
<path style="stroke: rgb(38,31,35); stroke-width: 1; stroke-dasharray: none; stroke-linecap: round; stroke-dashoffset: 0; stroke-linejoin: round; stroke-miterlimit: 4; fill: none; fill-rule: nonzero; opacity: 1;" vector-effect="non-scaling-stroke"  transform=" translate(-286.73, -217.31)" d="M 285.18 217.69 C 285.18 217.69 286.3 216.9 287.16 216.93 C 288.02000000000004 216.96 288.28000000000003 217.69 288.28000000000003 217.69 L 287.22 217.69" stroke-linecap="round" />
</g>
		<g transform="matrix(1 0 0 1 -16.05 -16.54)"  >
<path style="stroke: rgb(134,163,248); stroke-width: 1; stroke-dasharray: none; stroke-linecap: butt; stroke-dashoffset: 0; stroke-linejoin: miter; stroke-miterlimit: 10; fill: none; fill-rule: nonzero; opacity: 1;" vector-effect="non-scaling-stroke"  transform=" translate(-267.35, -210.42)" d="M 268.83 206.75 C 268.83 206.75 265.45 208.71 265.91999999999996 214.09" stroke-linecap="round" />
</g>
		<g transform="matrix(1 0 0 1 6.25 -16.02)"  >
<path style="stroke: rgb(134,163,248); stroke-width: 1; stroke-dasharray: none; stroke-linecap: butt; stroke-dashoffset: 0; stroke-linejoin: miter; stroke-miterlimit: 10; fill: none; fill-rule: nonzero; opacity: 1;" vector-effect="non-scaling-stroke"  transform=" translate(-289.66, -210.95)" d="M 287.24 208.46 L 287.24 208.46 C 288.07 207.53 289.56 207.62 290.26 208.65 C 291.3 210.17000000000002 292.42 212.33 291.98 214.08" stroke-linecap="round" />
</g>
		<g transform="matrix(1 0 0 1 -19.31 -75.26)"  >
<line style="stroke: rgb(38,31,35); stroke-width: 1; stroke-dasharray: none; stroke-linecap: round; stroke-dashoffset: 0; stroke-linejoin: round; stroke-miterlimit: 4; fill: none; fill-rule: nonzero; opacity: 1;" vector-effect="non-scaling-stroke"  x1="7.315000000000026" y1="-7.310000000000002" x2="-7.315000000000026" y2="7.310000000000002" />
</g>
		<g transform="matrix(1 0 0 1 -43.94 -78.32)"  >
<path style="stroke: none; stroke-width: 0; stroke-dasharray: none; stroke-linecap: butt; stroke-dashoffset: 0; stroke-linejoin: miter; stroke-miterlimit: 4; fill: rgb(38,31,35); fill-rule: nonzero; opacity: 1;" vector-effect="non-scaling-stroke"  transform=" translate(-239.47, -148.64)" d="M 226.63 162.83 C 226.63 162.83 246.18 149.61 252.3 134.45000000000002 L 227.67000000000002 151.70000000000002 L 226.63000000000002 162.83 Z" stroke-linecap="round" />
</g>
		<g transform="matrix(1 0 0 1 -19.22 -46.04)"  >
<polygon style="stroke: none; stroke-width: 0; stroke-dasharray: none; stroke-linecap: butt; stroke-dashoffset: 0; stroke-linejoin: miter; stroke-miterlimit: 4; fill: rgb(192,212,246); fill-rule: nonzero; opacity: 1;" vector-effect="non-scaling-stroke"  points="3.64,-4.47 -4.18,0.11 4.18,4.47 3.64,-4.47 " />
</g>
		<g transform="matrix(1 0 0 1 -20.29 -42.96)"  >
<path style="stroke: rgb(38,31,35); stroke-width: 1; stroke-dasharray: none; stroke-linecap: round; stroke-dashoffset: 0; stroke-linejoin: round; stroke-miterlimit: 4; fill: none; fill-rule: nonzero; opacity: 1;" vector-effect="non-scaling-stroke"  transform=" translate(-263.12, -184.01)" d="M 265.14 186.98 L 267.83 186.98 L 262.45 182.79999999999998 C 262.45 182.79999999999998 260.46 180.73999999999998 258.40999999999997 181.07" stroke-linecap="round" />
</g>
		<g transform="matrix(1 0 0 1 -30.6 -42.87)"  >
<path style="stroke: rgb(38,31,35); stroke-width: 1; stroke-dasharray: none; stroke-linecap: round; stroke-dashoffset: 0; stroke-linejoin: round; stroke-miterlimit: 4; fill: rgb(229,236,247); fill-rule: nonzero; opacity: 1;" vector-effect="non-scaling-stroke"  transform=" translate(-252.81, -184.09)" d="M 244.67 187.55 C 244.67 187.55 248.61999999999998 182.72 252.61999999999998 182.22 L 260.94 180.63" stroke-linecap="round" />
</g>
		<g transform="matrix(1 0 0 1 -27.72 -41.44)"  >
<path style="stroke: none; stroke-width: 0; stroke-dasharray: none; stroke-linecap: butt; stroke-dashoffset: 0; stroke-linejoin: miter; stroke-miterlimit: 4; fill: rgb(38,31,35); fill-rule: nonzero; opacity: 1;" vector-effect="non-scaling-stroke"  transform=" translate(-255.69, -185.52)" d="M 251.36 185.39 C 251.36 184.29 251.77 183.29 252.44000000000003 182.52999999999997 C 253.23000000000002 181.62999999999997 256.85 181.17999999999998 257.37 181.39999999999998 C 258.92 182.05999999999997 260.01 183.58999999999997 260.01 185.37999999999997 C 260.01 187.76999999999995 258.07 189.69999999999996 255.69 189.69999999999996 C 253.31 189.69999999999996 251.37 187.75999999999996 251.37 185.37999999999997 Z" stroke-linecap="round" />
</g>
		<g transform="matrix(1 0 0 1 -28.35 -37.25)"  >
<line style="stroke: rgb(255,255,255); stroke-width: 2; stroke-dasharray: none; stroke-linecap: round; stroke-dashoffset: 0; stroke-linejoin: round; stroke-miterlimit: 4; fill: none; fill-rule: nonzero; opacity: 1;" vector-effect="non-scaling-stroke"  x1="-3.2450000000000045" y1="0" x2="3.2450000000000045" y2="0" />
</g>
		<g transform="matrix(1 0 0 1 -25.95 -53.94)"  >
<path style="stroke: rgb(38,31,35); stroke-width: 5.36; stroke-dasharray: none; stroke-linecap: round; stroke-dashoffset: 0; stroke-linejoin: round; stroke-miterlimit: 4; fill: none; fill-rule: nonzero; opacity: 1;" vector-effect="non-scaling-stroke"  transform=" translate(-257.46, -173.03)" d="M 246.94 173.33 L 265.43 171.34 C 267.1 171.16 268.39 172.78 267.85 174.37 L 267.73 174.73000000000002 L 256.6 172.84000000000003" stroke-linecap="round" />
</g>
</g>
</g>
</svg>