<svg width="142" height="40" viewBox="0 0 142 40" fill="none" xmlns="http://www.w3.org/2000/svg">
<path d="M38.06 22.5937L35.6567 17.7684V14.9895C35.6567 10.3832 31.9597 6.65263 27.4001 6.65263H23.2928C23.59 6.04211 23.7533 5.35579 23.7533 4.63158C23.7533 2.07158 21.6934 0 19.1477 0C16.6021 0 14.5421 2.07158 14.5421 4.63158C14.5421 5.35579 14.7054 6.04211 15.0027 6.65263H10.8954C6.33583 6.65263 2.63879 10.3832 2.63879 14.9895V17.7684L0.18527 22.5811C-0.0617568 23.0653 -0.0617568 23.6421 0.18527 24.1263L2.63879 28.8842V31.6632C2.63879 36.2695 6.33583 40 10.8954 40H27.4001C31.9597 40 35.6567 36.2695 35.6567 31.6632V28.8842L38.0558 24.1095C38.2944 23.6337 38.2944 23.0737 38.06 22.5937ZM16.6356 26.5263C16.6356 28.6189 14.9483 30.3158 12.8674 30.3158C10.7865 30.3158 9.09918 28.6189 9.09918 26.5263V19.7895C9.09918 17.6968 10.7865 16 12.8674 16C14.9483 16 16.6356 17.6968 16.6356 19.7895V26.5263ZM28.7776 26.5263C28.7776 28.6189 27.0903 30.3158 25.0094 30.3158C22.9285 30.3158 21.2412 28.6189 21.2412 26.5263V19.7895C21.2412 17.6968 22.9285 16 25.0094 16C27.0903 16 28.7776 17.6968 28.7776 19.7895V26.5263Z" fill="#18181B"/>
<path d="M55.3947 31.8058C53.5169 31.8058 51.8889 31.3663 50.5106 30.4874C49.1522 29.5885 48.0935 28.33 47.3344 26.7119C46.5953 25.0739 46.2257 23.1662 46.2257 20.9888C46.2257 18.7914 46.6053 16.8837 47.3643 15.2657C48.1234 13.6476 49.2021 12.3991 50.6005 11.5202C51.9988 10.6213 53.6568 10.1718 55.5745 10.1718C57.0727 10.1718 58.451 10.4615 59.7095 11.0408C60.968 11.6201 61.9968 12.4591 62.7958 13.5577C63.6148 14.6564 64.0643 15.9948 64.1442 17.5729H58.7507C58.6508 16.5541 58.3312 15.7451 57.7918 15.1458C57.2525 14.5266 56.5133 14.2169 55.5745 14.2169C54.7754 14.2169 54.0463 14.4766 53.3871 14.996C52.7479 15.4954 52.2385 16.2545 51.8589 17.2733C51.4994 18.2721 51.3196 19.5106 51.3196 20.9888C51.3196 22.4471 51.4994 23.6856 51.8589 24.7043C52.2185 25.7031 52.6979 26.4622 53.2972 26.9816C53.9165 27.501 54.6156 27.7607 55.3947 27.7607C56.0539 27.7607 56.6232 27.6308 57.1026 27.3711C57.602 27.0915 58.0016 26.692 58.3012 26.1726C58.6208 25.6532 58.8106 25.024 58.8705 24.2848H64.264C64.1042 25.823 63.6448 27.1614 62.8857 28.3C62.1466 29.4187 61.1478 30.2876 59.8893 30.9069C58.6308 31.5062 57.1326 31.8058 55.3947 31.8058Z" fill="#18181B"/>
<path d="M72.336 31.4462V9.27289H77.0104V31.4462H72.336ZM66.9425 31.4462V27.6708H82.4639V31.4462H66.9425ZM69.04 13.0483V9.27289H74.6732V13.0483H69.04Z" fill="#18181B"/>
<path d="M91.8243 31.4462V14.7863H96.4987V31.4462H91.8243ZM86.4308 31.4462V27.6708H101.952V31.4462H86.4308ZM88.5283 18.5617V14.7863H94.1615V18.5617H88.5283ZM91.6446 12.5689V8.19418H96.6186V12.5689H91.6446Z" fill="#18181B"/>
<path d="M116.916 31.4462V21.1686C116.916 20.3096 116.696 19.6205 116.257 19.1011C115.817 18.5817 115.238 18.322 114.519 18.322C113.7 18.322 112.941 18.6017 112.242 19.161C111.562 19.7004 110.843 20.6392 110.084 21.9776L109.425 18.0224C110.184 16.7239 111.103 15.805 112.182 15.2657C113.26 14.7064 114.359 14.4267 115.478 14.4267C116.756 14.4267 117.845 14.6964 118.744 15.2357C119.663 15.7751 120.362 16.5242 120.841 17.483C121.341 18.4419 121.59 19.5705 121.59 20.869V31.4462H116.916ZM105.799 31.4462V14.7863H110.324L110.474 17.7527V31.4462H105.799Z" fill="#18181B"/>
<path d="M133.288 31.8058C131.49 31.8058 129.942 31.4562 128.644 30.7571C127.365 30.0579 126.376 29.0591 125.677 27.7607C124.978 26.4622 124.628 24.9141 124.628 23.1162C124.628 21.2984 124.978 19.7403 125.677 18.4419C126.376 17.1434 127.385 16.1546 128.703 15.4754C130.042 14.7763 131.65 14.4267 133.528 14.4267C136.464 14.4267 138.592 15.2657 139.91 16.9437C141.248 18.6017 141.808 20.8889 141.588 23.8054H128.344L128.374 20.5993H136.824C136.764 19.8402 136.424 19.2309 135.805 18.7715C135.186 18.292 134.417 18.0523 133.498 18.0523C132.059 18.0523 131.001 18.5018 130.322 19.4007C129.642 20.2996 129.303 21.6081 129.303 23.326C129.303 24.185 129.453 24.974 129.752 25.6932C130.052 26.4123 130.491 26.9916 131.071 27.4311C131.67 27.8506 132.409 28.0603 133.288 28.0603C134.227 28.0603 135.016 27.8306 135.655 27.3711C136.314 26.9117 136.714 26.3324 136.854 25.6332H141.528C141.328 27.5309 140.489 29.0391 139.011 30.1578C137.553 31.2565 135.645 31.8058 133.288 31.8058Z" fill="#18181B"/>
</svg>
